{
	"asset":{
		"generator":"Khronos glTF Blender I/O v3.5.30",
		"version":"2.0"
	},
	"extensionsUsed":[
		"KHR_materials_transmission",
		"KHR_materials_specular",
		"KHR_materials_ior"
	],
	"scene":0,
	"scenes":[
		{
			"name":"Scene",
			"nodes":[
				0
			]
		}
	],
	"nodes":[
		{
			"mesh":0,
			"name":"animeface",
			"rotation":[
				0.7071068286895752,
				0,
				0,
				0.7071068286895752
			]
		}
	],
	"materials":[
		{
			"alphaMode":"BLEND",
			"doubleSided":true,
			"extensions":{
				"KHR_materials_transmission":{
					"transmissionFactor":1
				},
				"KHR_materials_specular":{
					"specularColorFactor":[
						1,
						1,
						1
					]
				},
				"KHR_materials_ior":{
					"ior":1
				}
			},
			"name":"initialShadingGroup.003",
			"pbrMetallicRoughness":{
				"baseColorFactor":[
					0.5,
					0.5,
					0.5,
					1
				],
				"metallicFactor":0
			}
		}
	],
	"meshes":[
		{
			"name":"animeface.003",
			"primitives":[
				{
					"attributes":{
						"POSITION":0,
						"TEXCOORD_0":1,
						"NORMAL":2
					},
					"indices":3,
					"material":0
				}
			]
		}
	],
	"accessors":[
		{
			"bufferView":0,
			"componentType":5126,
			"count":2085,
			"max":[
				0.6264610290527344,
				0.8705629706382751,
				0.6777740120887756
			],
			"min":[
				-0.6264610290527344,
				-0.8705629706382751,
				-0.5490700006484985
			],
			"type":"VEC3"
		},
		{
			"bufferView":1,
			"componentType":5126,
			"count":2085,
			"type":"VEC2"
		},
		{
			"bufferView":2,
			"componentType":5126,
			"count":2085,
			"type":"VEC3"
		},
		{
			"bufferView":3,
			"componentType":5123,
			"count":4140,
			"type":"SCALAR"
		}
	],
	"bufferViews":[
		{
			"buffer":0,
			"byteLength":25020,
			"byteOffset":0,
			"target":34962
		},
		{
			"buffer":0,
			"byteLength":16680,
			"byteOffset":25020,
			"target":34962
		},
		{
			"buffer":0,
			"byteLength":25020,
			"byteOffset":41700,
			"target":34962
		},
		{
			"buffer":0,
			"byteLength":8280,
			"byteOffset":66720,
			"target":34963
		}
	],
	"buffers":[
		{
			"byteLength":75000,
			"uri":"data:application/octet-stream;base64,"
		}
	]
}
