{
	"asset":{
		"generator":"Khronos glTF Blender I/O v3.5.30",
		"version":"2.0"
	},
	"extensionsUsed":[
		"KHR_materials_transmission",
		"KHR_materials_specular",
		"KHR_materials_ior"
	],
	"scene":0,
	"scenes":[
		{
			"name":"Scene",
			"nodes":[
				0
			]
		}
	],
	"nodes":[
		{
			"mesh":0,
			"name":"bunny"
		}
	],
	"materials":[
		{
			"alphaMode":"BLEND",
			"doubleSided":true,
			"extensions":{
				"KHR_materials_transmission":{
					"transmissionFactor":1
				},
				"KHR_materials_specular":{
					"specularColorFactor":[
						1,
						1,
						1
					]
				},
				"KHR_materials_ior":{
					"ior":1
				}
			},
			"name":"lambert2SG",
			"pbrMetallicRoughness":{
				"baseColorFactor":[
					0.5,
					0.5,
					0.5,
					1
				],
				"metallicFactor":0
			}
		}
	],
	"meshes":[
		{
			"name":"bunny",
			"primitives":[
				{
					"attributes":{
						"POSITION":0,
						"TEXCOORD_0":1,
						"NORMAL":2
					},
					"indices":3,
					"material":0
				}
			]
		}
	],
	"accessors":[
		{
			"bufferView":0,
			"componentType":5126,
			"count":16393,
			"max":[
				0.6561039686203003,
				0.6489420533180237,
				0.5063707828521729
			],
			"min":[
				-0.6561040282249451,
				-0.648941159248352,
				-0.5063707232475281
			],
			"type":"VEC3"
		},
		{
			"bufferView":1,
			"componentType":5126,
			"count":16393,
			"type":"VEC2"
		},
		{
			"bufferView":2,
			"componentType":5126,
			"count":16393,
			"type":"VEC3"
		},
		{
			"bufferView":3,
			"componentType":5123,
			"count":25710,
			"type":"SCALAR"
		}
	],
	"bufferViews":[
		{
			"buffer":0,
			"byteLength":196716,
			"byteOffset":0,
			"target":34962
		},
		{
			"buffer":0,
			"byteLength":131144,
			"byteOffset":196716,
			"target":34962
		},
		{
			"buffer":0,
			"byteLength":196716,
			"byteOffset":327860,
			"target":34962
		},
		{
			"buffer":0,
			"byteLength":51420,
			"byteOffset":524576,
			"target":34963
		}
	],
	"buffers":[
		{
			"byteLength":575996,
			"uri":"data:application/octet-stream;base64,"
		}
	]
}
