{
	"asset":{
		"generator":"Khronos glTF Blender I/O v3.5.30",
		"version":"2.0"
	},
	"extensionsUsed":[
		"KHR_materials_transmission",
		"KHR_materials_specular",
		"KHR_materials_ior"
	],
	"scene":0,
	"scenes":[
		{
			"name":"Scene",
			"nodes":[
				0
			]
		}
	],
	"nodes":[
		{
			"mesh":0,
			"name":"cow"
		}
	],
	"animations":[
		{
			"channels":[
				{
					"sampler":0,
					"target":{
						"node":0,
						"path":"translation"
					}
				},
				{
					"sampler":1,
					"target":{
						"node":0,
						"path":"rotation"
					}
				},
				{
					"sampler":2,
					"target":{
						"node":0,
						"path":"scale"
					}
				}
			],
			"name":"cow",
			"samplers":[
				{
					"input":5,
					"interpolation":"LINEAR",
					"output":6
				},
				{
					"input":5,
					"interpolation":"LINEAR",
					"output":7
				},
				{
					"input":5,
					"interpolation":"LINEAR",
					"output":8
				}
			]
		}
	],
	"materials":[
		{
			"alphaMode":"BLEND",
			"doubleSided":true,
			"extensions":{
				"KHR_materials_transmission":{
					"transmissionFactor":1
				},
				"KHR_materials_specular":{
					"specularColorFactor":[
						1,
						1,
						1
					]
				},
				"KHR_materials_ior":{
					"ior":1
				}
			},
			"name":"MeshSG",
			"pbrMetallicRoughness":{
				"baseColorFactor":[
					0.47999998927116394,
					0.47999998927116394,
					0.47999998927116394,
					1
				],
				"metallicFactor":0.20000000298023224,
				"roughnessFactor":0.49601584672927856
			}
		}
	],
	"meshes":[
		{
			"name":"cow",
			"primitives":[
				{
					"attributes":{
						"POSITION":0,
						"TEXCOORD_0":1,
						"TEXCOORD_1":2,
						"NORMAL":3
					},
					"indices":4,
					"material":0
				}
			]
		}
	],
	"accessors":[
		{
			"bufferView":0,
			"componentType":5126,
			"count":5582,
			"max":[
				0.4715520441532135,
				0.8469049334526062,
				0.8582239747047424
			],
			"min":[
				-0.4715519845485687,
				-0.8474809527397156,
				-0.8582360148429871
			],
			"type":"VEC3"
		},
		{
			"bufferView":1,
			"componentType":5126,
			"count":5582,
			"type":"VEC2"
		},
		{
			"bufferView":2,
			"componentType":5126,
			"count":5582,
			"type":"VEC2"
		},
		{
			"bufferView":3,
			"componentType":5126,
			"count":5582,
			"type":"VEC3"
		},
		{
			"bufferView":4,
			"componentType":5123,
			"count":17568,
			"type":"SCALAR"
		},
		{
			"bufferView":5,
			"componentType":5126,
			"count":2,
			"max":[
				0.041666666666666664
			],
			"min":[
				0
			],
			"type":"SCALAR"
		},
		{
			"bufferView":6,
			"componentType":5126,
			"count":2,
			"type":"VEC3"
		},
		{
			"bufferView":7,
			"componentType":5126,
			"count":2,
			"type":"VEC4"
		},
		{
			"bufferView":8,
			"componentType":5126,
			"count":2,
			"type":"VEC3"
		}
	],
	"bufferViews":[
		{
			"buffer":0,
			"byteLength":66984,
			"byteOffset":0,
			"target":34962
		},
		{
			"buffer":0,
			"byteLength":44656,
			"byteOffset":66984,
			"target":34962
		},
		{
			"buffer":0,
			"byteLength":44656,
			"byteOffset":111640,
			"target":34962
		},
		{
			"buffer":0,
			"byteLength":66984,
			"byteOffset":156296,
			"target":34962
		},
		{
			"buffer":0,
			"byteLength":35136,
			"byteOffset":223280,
			"target":34963
		},
		{
			"buffer":0,
			"byteLength":8,
			"byteOffset":258416
		},
		{
			"buffer":0,
			"byteLength":24,
			"byteOffset":258424
		},
		{
			"buffer":0,
			"byteLength":32,
			"byteOffset":258448
		},
		{
			"buffer":0,
			"byteLength":24,
			"byteOffset":258480
		}
	],
	"buffers":[
		{
			"byteLength":258504,
			"uri":"data:application/octet-stream;base64,"
		}
	]
}
